<?xml version="1.0" encoding="UTF-8"?>
<!DOCTYPE svg PUBLIC "-//W3C//DTD SVG 1.1//EN" "http://www.w3.org/Graphics/SVG/1.1/DTD/svg11.dtd">
<!-- Creator: CorelDRAW 2018 (64 Bit Versión de evaluación) -->
<svg xmlns="http://www.w3.org/2000/svg" xml:space="preserve" width="52.9166mm" height="50.8793mm" version="1.1" style="shape-rendering:geometricPrecision; text-rendering:geometricPrecision; image-rendering:optimizeQuality; fill-rule:evenodd; clip-rule:evenodd"
viewBox="0 0 2977.06 2862.45"
 xmlns:xlink="http://www.w3.org/1999/xlink">
 <defs>
  <style type="text/css">
   <![CDATA[
    .fil1 {fill:none}
    .fil2 {fill:#393536}
    .fil0 {fill:#393536;fill-rule:nonzero}
   ]]>
  </style>
    <clipPath id="id0">
     <path d="M-0 0l2977.06 0 0 1607.62 -2977.06 0 0 -1607.62zm0 0z"/>
    </clipPath>
    <clipPath id="id1">
     <path d="M-0 202.74l2977.06 0 0 972.51 -2977.06 0 0 -972.51zm0 0z"/>
    </clipPath>
 </defs>
 <g id="Capa_x0020_1">
  <metadata id="CorelCorpID_0Corel-Layer"/>
  <g id="_1747859410384">
   <g>
   </g>
   <g style="clip-path:url(#id0)">
    <g id="_1782324450864">
     <path class="fil0" d="M2143.18 962.59c6.98,15.2 10.69,31.79 10.69,48.69 0,64.42 -52.33,116.83 -116.6,116.83 -0.08,0 -0.16,0 -0.24,0 -111.95,188.86 -318.02,315.85 -552.23,314.53 -232.43,-1.24 -435.32,-127.23 -545.72,-314.53 -64.03,-0.24 -116.14,-52.56 -116.14,-116.83 0,-16.9 3.72,-33.49 10.62,-48.69l-80.32 -7.83c1.4,6.67 2.79,13.25 4.34,19.92 -0.39,1.16 -0.7,2.17 -1.01,3.26 9.38,39.93 22.02,78.69 37.53,115.98 0.93,0.7 1.78,1.24 2.71,2.01 14.19,33.49 30.63,65.82 49.23,96.6 0.62,1.09 0.7,2.48 0.16,3.65 1.08,1.78 2.24,3.57 3.41,5.43l-26.82 46.67c-0.78,1.24 -0.7,2.87 0.08,4.03 10.85,16.12 22.25,31.87 34.19,47.13 0.93,1.16 2.4,1.71 3.8,1.32l52.64 -11.17c1.47,1.7 2.87,3.41 4.26,5.12 1.09,0.31 2.09,0.7 3.26,1.09 23.57,27.29 49.15,52.87 76.44,76.6 0.31,1.16 0.7,2.09 1.01,3.18 1.7,1.47 3.41,2.87 5.12,4.34l-11.17 52.72c-0.31,1.4 0.24,2.87 1.32,3.8 15.27,11.94 30.93,23.42 46.98,34.27 1.24,0.78 2.79,0.86 4.11,0.16l46.59 -26.9c1.78,1.16 3.57,2.25 5.43,3.41 1.16,-0.54 2.48,-0.46 3.56,0.16 30.78,18.68 62.95,35.12 96.37,49.31 1.24,0.47 2.02,1.55 2.25,2.79 2.01,0.86 3.96,1.63 5.97,2.41l5.58 53.65c0.16,1.47 1.16,2.71 2.48,3.18 18.14,6.67 36.52,12.64 55.2,17.99 1.4,0.39 2.87,-0.08 3.88,-1.16l35.97 -40.08c2.17,0.55 4.26,1.09 6.44,1.63 1.09,-0.39 2.09,-0.7 3.26,-1.09 34.73,8.14 70.39,13.8 106.75,16.9 1.09,0.7 1.86,1.32 2.87,1.94 2.17,0.23 4.34,0.31 6.59,0.54l21.94 49.15c1.16,0.85 2.09,1.47 3.34,2.32 9.61,0.31 19.38,0.47 29.07,0.47 9.77,0 19.46,-0.16 29.07,-0.47 1.24,-0.85 2.17,-1.47 3.34,-2.32l21.94 -49.15c2.25,-0.23 4.42,-0.31 6.67,-0.54 0.93,-0.62 1.78,-1.24 2.79,-1.94 36.36,-3.1 72.1,-8.76 106.83,-16.9 1.16,0.39 2.09,0.7 3.26,1.09 2.09,-0.55 4.26,-1.09 6.36,-1.63l36.05 40.08c0.93,1.09 2.48,1.55 3.88,1.16 18.68,-5.35 37.06,-11.32 55.12,-17.99 1.4,-0.47 2.32,-1.71 2.48,-3.18l5.66 -53.65c1.94,-0.78 3.95,-1.55 5.89,-2.41 0.23,-1.24 1.09,-2.32 2.24,-2.79 33.42,-14.19 65.67,-30.62 96.37,-49.31 1.09,-0.62 2.48,-0.7 3.65,-0.16 1.78,-1.09 3.57,-2.24 5.43,-3.41l46.59 26.9c1.24,0.7 2.79,0.62 4.03,-0.16 16.05,-10.85 31.79,-22.32 46.98,-34.27 1.16,-0.93 1.7,-2.4 1.32,-3.8l-11.09 -52.72c1.63,-1.47 3.34,-2.86 5.04,-4.34 0.39,-1.09 0.7,-2.02 1.09,-3.18 27.21,-23.72 52.79,-49.31 76.44,-76.6 1.16,-0.39 2.09,-0.7 3.18,-1.09 1.47,-1.7 2.87,-3.41 4.26,-5.12l52.64 11.17c1.4,0.39 2.87,-0.16 3.8,-1.32 11.94,-15.27 23.34,-31.01 34.19,-47.13 0.78,-1.16 0.86,-2.79 0.16,-4.03l-26.82 -46.67c1.09,-1.86 2.24,-3.65 3.33,-5.43 -0.54,-1.16 -0.46,-2.56 0.16,-3.65 18.68,-30.78 35.12,-63.11 49.23,-96.6 0.47,-1.16 1.55,-2.01 2.8,-2.25 15.51,-37.14 28.06,-75.82 37.52,-115.75 -0.39,-1.09 -0.7,-2.09 -1.09,-3.26 1.55,-6.67 3.03,-13.25 4.34,-19.92l-80.32 7.83zm832.42 -838.93l-1166.41 0c-9.61,-4.57 -19.38,-8.92 -29.23,-13.1 -1.16,-0.54 -2.01,-1.55 -2.24,-2.87 -1.94,-0.77 -3.96,-1.55 -5.89,-2.4l-5.66 -53.57c-0.16,-1.47 -1.09,-2.71 -2.48,-3.26 -18.06,-6.59 -36.44,-12.56 -55.12,-17.91 -1.4,-0.39 -2.95,0 -3.88,1.16l-36.05 40c-2.09,-0.54 -4.26,-1.09 -6.36,-1.55 -1.16,0.31 -2.09,0.62 -3.26,1.01 -34.73,-8.06 -70.4,-13.72 -106.83,-16.83 -1.01,-0.7 -1.86,-1.32 -2.79,-2.01 -2.17,-0.15 -4.42,-0.31 -6.67,-0.47l-21.94 -49.23c-1.16,-0.78 -2.09,-1.4 -3.34,-2.25 -9.61,-0.31 -19.3,-0.54 -29.07,-0.54 -9.69,0 -19.45,0.23 -29.07,0.54 -1.24,0.86 -2.17,1.47 -3.34,2.25l-21.94 49.23c-2.24,0.16 -4.42,0.32 -6.59,0.47 -1.01,0.7 -1.78,1.32 -2.79,2.01 -36.44,3.11 -72.1,8.77 -106.83,16.83 -1.16,-0.39 -2.17,-0.7 -3.26,-1.01 -2.17,0.46 -4.26,1.01 -6.44,1.55l-35.97 -40c-1.01,-1.16 -2.48,-1.55 -3.88,-1.16 -18.68,5.35 -37.06,11.32 -55.12,17.91 -1.4,0.55 -2.4,1.78 -2.56,3.26l-5.58 53.57c-2.01,0.86 -3.96,1.63 -5.97,2.4 -0.23,1.32 -1.01,2.33 -2.25,2.87 -9.85,4.19 -19.61,8.53 -29.23,13.1l-1166.33 0c38.76,52.56 100.09,83.57 165.37,83.57l861.95 0c-10.23,7.91 -20.24,16.05 -30,24.5 -0.39,1.16 -0.7,2.09 -1.09,3.26 -18.76,16.28 -36.67,33.49 -53.73,51.48l-822.33 0c36.82,49.85 95.04,79.31 156.99,79.31l597.89 0c-10.54,14.73 -20.62,29.92 -30.08,45.44 0.54,1.16 0.46,2.48 -0.16,3.56 -6.05,9.92 -11.79,20.08 -17.29,30.24l-540.76 0c45.74,50.47 110.63,79.31 178.62,79.31l323.13 0c-10.31,25.74 -19.15,52.18 -26.59,79.24l-331.51 0c45.74,50.54 110.56,79.31 178.62,79.31l137.45 0c-3.02,18.76 -5.34,37.68 -6.98,56.91 -0.7,1.01 -1.32,1.78 -1.94,2.79 -0.55,6.28 -0.93,12.56 -1.32,18.91l114.74 0c22.02,-333.21 301.58,-598.67 639.76,-596.73 336.31,1.86 610.84,264.68 632.47,596.73l114.74 0c-0.38,-6.36 -0.77,-12.64 -1.24,-18.91 -0.7,-1.01 -1.32,-1.78 -2.01,-2.79 -1.63,-19.23 -3.96,-38.14 -6.98,-56.91l137.54 0c67.99,0 132.88,-28.77 178.62,-79.31l-331.59 0c-7.36,-27.06 -16.28,-53.5 -26.52,-79.24l323.06 0c67.99,0 132.89,-28.84 178.62,-79.31l-540.76 0c-5.5,-10.15 -11.24,-20.32 -17.29,-30.24 -0.62,-1.08 -0.7,-2.4 -0.16,-3.56 -9.46,-15.51 -19.46,-30.7 -30,-45.44l597.9 0c61.86,0 120.09,-29.46 156.91,-79.31l-822.26 0c-17.05,-17.99 -34.97,-35.2 -53.72,-51.48 -0.39,-1.16 -0.7,-2.09 -1.09,-3.26 -9.77,-8.45 -19.85,-16.59 -30.08,-24.5l862.03 0c65.2,0 126.53,-31.01 165.37,-83.57z"/>
    </g>
   </g>
   <path class="fil1" d="M-0 0l2977.06 0 0 1607.62 -2977.06 0 0 -1607.62zm0 0z"/>
   <g>
   </g>
   <g style="clip-path:url(#id1)">
    <g>
     <path class="fil0" d="M2384.91 975.92l0 -47.6c24.5,3.8 43.72,23.1 47.44,47.6l-47.44 0zm0 64.81l0 -47.52 47.44 0c-3.72,24.5 -22.95,43.8 -47.44,47.52zm-17.21 -64.81l-47.45 0c3.65,-24.5 22.95,-43.8 47.45,-47.6l0 47.6zm0 64.81c-24.5,-3.72 -43.8,-23.03 -47.45,-47.52l47.45 0 0 47.52zm-321.82 -38.07l0 -47.6c24.5,3.72 43.72,23.1 47.53,47.6l-47.53 0zm0 64.81l0 -47.6 47.53 0c-3.8,24.58 -23.03,43.88 -47.53,47.6zm-17.21 -64.81l-47.45 0c3.57,-23.8 21.94,-42.64 45.44,-47.13l2.01 -0.16 0 47.29zm0 64.81c-24.42,-3.72 -43.72,-23.02 -47.45,-47.6l47.45 0 0 47.6zm-389.73 -321.66l-301.04 0c-30.47,0 -49,-25.12 -33.03,-44.58l14.5 -17.68c33.03,-40.08 91.25,-64.5 153.97,-64.5l30.08 0c62.72,0 120.94,24.42 153.97,64.5l14.5 17.68c16.05,19.46 -2.56,44.58 -32.95,44.58zm-690.85 256.85l0 -47.29 2.09 0.16c23.42,4.5 41.79,23.34 45.43,47.13l-47.52 0zm0 64.81l0 -47.6 47.52 0c-3.72,24.58 -23.02,43.88 -47.52,47.6zm-17.21 -64.81l-47.45 0c3.72,-24.5 23.03,-43.88 47.45,-47.6l0 47.6zm0 64.81c-24.42,-3.72 -43.72,-23.02 -47.45,-47.6l47.45 0 0 47.6zm-321.82 -91.56l0 -47.6c24.5,3.8 43.8,23.1 47.53,47.6l-47.53 0zm0 64.81l0 -47.52 47.53 0c-3.72,24.5 -23.03,43.8 -47.53,47.52zm-17.21 -64.81l-47.44 0c3.72,-24.5 23.02,-43.8 47.44,-47.6l0 47.6zm0 64.81c-24.42,-3.72 -43.72,-23.03 -47.44,-47.52l47.44 0 0 47.52zm2239.16 -260.8l-1034.92 0c-15.74,-103.58 -77.22,-191.11 -161.8,-238.55l69.7 -36.36c20.86,-10.85 33.88,-32.41 33.88,-55.98l-169.09 65.2c-9.77,-2.79 -19.62,-5.04 -29.69,-6.75l-35.9 -288.48c-1.32,-10.62 -8.06,-15.97 -14.81,-15.97 -6.74,0 -13.41,5.35 -14.81,15.97l-35.89 288.48c-10,1.7 -19.92,3.96 -29.62,6.75l-169.17 -65.2c0,23.57 13.02,45.13 33.88,55.98l69.7 36.36c-84.59,47.44 -146.06,134.97 -161.72,238.55l-1035 0 -144.51 -123.73 99.7 184.59c11.08,20.47 31.55,34.11 54.66,36.36l376.32 37.13c-18.22,17.83 -29.54,42.72 -29.54,70.24 0,57.99 50,104.28 109.15,97.77 44.97,-4.89 81.49,-41.56 86.44,-86.6 2.72,-24.81 -3.8,-48.07 -16.51,-66.59l183.74 18.06c-14.81,17.29 -23.8,39.62 -23.8,64.12 0,57.91 49.93,104.2 109,97.76 43.57,-4.73 79.47,-39.08 86.06,-82.49 3.56,-23.26 -1.24,-45.27 -11.56,-63.65l185.45 18.37c51.48,107.06 156.6,180.48 278.01,180.48 121.49,0 226.61,-73.42 278.02,-180.48l185.52 -18.37c-10.39,18.37 -15.12,40.39 -11.63,63.65 6.67,43.42 42.49,77.76 86.06,82.49 59.07,6.44 109.08,-39.85 109.08,-97.76 0,-24.5 -9.07,-46.83 -23.88,-64.12l183.82 -18.06c-12.71,18.53 -19.3,41.78 -16.59,66.59 4.96,45.04 41.48,81.71 86.45,86.6 59.15,6.51 109.23,-39.78 109.23,-97.77 0,-27.52 -11.32,-52.41 -29.54,-70.24l376.24 -37.13c23.11,-2.25 43.65,-15.89 54.66,-36.36l99.78 -184.59 -144.59 123.73z"/>
    </g>
   </g>
   <path class="fil1" d="M-0 202.74l2977.06 0 0 972.51 -2977.06 0 0 -972.51zm0 0z"/>
   <g>
    <g id="_1782324440048">
     <g>
      <path class="fil2" d="M583.08 2435.15c-35.2,0 -70.09,-6.43 -104.82,-19.22 -34.58,-12.79 -63.19,-31.17 -85.9,-55.2 -22.56,-24.19 -33.8,-52.41 -33.8,-84.66 0,-8.06 0.77,-16.59 2.17,-25.74 1.09,-4.34 3.57,-8.14 7.44,-11.48 4.11,-3.25 8.45,-4.96 13.03,-4.96l153.81 0c8.06,0 13.8,1.86 17.37,5.58 3.49,3.72 6.2,9.92 8.06,18.61 3.1,11.01 7.21,18.76 12.41,23.26 5.34,4.57 13.8,6.82 25.43,6.82 14.65,0 26.75,-4.65 36.28,-13.96 9.46,-9.3 16.51,-24.96 21.09,-47.13l36.91 -174.28 -223.9 0c-5.58,0 -9.92,-1.94 -13.02,-5.9 -2.95,-4.11 -3.88,-8.84 -2.79,-14.26l24.19 -112.57c0.78,-5.35 3.57,-10 8.37,-13.96 4.96,-4.11 10.08,-6.2 15.51,-6.2l399.12 0c5.58,0 9.92,2.09 13.02,6.2 3.26,3.96 4.42,8.61 3.41,13.96l-66.98 313.21c-14.73,69.31 -43.65,120.25 -86.83,152.89 -43.26,32.72 -103.11,49 -179.55,49zm0 0z"/>
     </g>
    </g>
   </g>
   <g>
    <g id="_1782324438064">
     <g>
      <path class="fil2" d="M881.09 2427.71c-4.11,0 -7.44,-1.24 -9.92,-3.72 -2.48,-2.48 -3.72,-5.74 -3.72,-9.92 0,-2.48 0.78,-5.27 2.17,-8.37l270.11 -480.99c3.88,-6.59 9.15,-12.41 15.81,-17.36 6.59,-4.96 14.35,-7.44 23.26,-7.44l167.46 0c9.07,0 15.89,2.4 20.47,7.13 4.5,4.81 7.29,10.7 8.37,17.68l66.36 480.99c0.39,6.67 -1.47,12.02 -5.58,16.12 -3.96,3.96 -8.92,5.89 -14.89,5.89l-135.83 0c-16.12,0 -24.65,-6.28 -25.43,-18.91l-7.75 -49.62 -162.19 0 -28.53 49.62c-3.56,5.58 -7.9,10.15 -13.02,13.64 -4.96,3.57 -11.71,5.27 -20.16,5.27l-146.99 0zm278.17 -215.83l85.28 0 -12.71 -140.17 -72.56 140.17zm0 0z"/>
     </g>
    </g>
   </g>
   <g>
    <g id="_1782324435664">
     <g>
      <path class="fil2" d="M1750.39 2435.15c-66.83,0 -121.49,-13.72 -164.05,-41.24 -42.41,-27.67 -63.57,-69.23 -63.57,-124.67 0,-10.54 1.24,-23.34 3.72,-38.45 5.97,-36.12 15.51,-80.93 28.53,-134.27 34.27,-136.22 127.84,-204.36 280.65,-204.36 39.23,0 76.6,5.73 111.95,17.05 35.51,11.4 64.51,29.07 86.83,53.03 22.33,23.8 33.49,53.26 33.49,88.38 0,9.54 -1.24,21.09 -3.72,34.73 -1.09,4.57 -3.65,8.53 -7.75,11.79 -3.96,3.1 -8.22,4.65 -12.71,4.65l-153.81 0c-8.06,0 -13.65,-1.4 -16.75,-4.34 -2.95,-3.1 -5.11,-8.84 -6.51,-17.37 -2.09,-15.04 -7.05,-25.58 -14.89,-31.63 -7.68,-5.97 -18.53,-9 -32.56,-9 -17.83,0 -32.41,4.65 -43.72,13.96 -11.17,9.3 -19.54,25.04 -25.12,47.13 -10.54,41.56 -19.54,83.73 -26.98,126.53 -1.7,7.67 -2.48,14.5 -2.48,20.47 0,14.5 3.88,24.96 11.79,31.32 7.83,6.21 18.99,9.31 33.49,9.31 29.15,0 50.71,-13.49 64.82,-40.63 4.5,-8.69 8.99,-14.42 13.33,-17.37 4.34,-3.1 10.7,-4.65 19.22,-4.65l153.82 0c4.5,0 8.14,1.7 10.85,4.96 2.87,3.34 3.8,7.29 2.79,11.79 -15.12,65.36 -47.68,113.81 -97.68,145.44 -50.08,31.63 -111.02,47.44 -182.97,47.44zm0 0z"/>
     </g>
    </g>
   </g>
   <g>
    <g id="_1782324435344">
     <g>
      <path class="fil2" d="M2088.17 2427.71c-5.58,0 -10.08,-1.94 -13.33,-5.89 -3.1,-4.11 -4.11,-8.99 -3.1,-14.58l103.88 -487.18c1.01,-5.35 3.88,-10 8.69,-13.96 4.73,-4.11 9.92,-6.2 15.51,-6.2l144.2 0c5.35,0 9.69,2.09 13.02,6.2 3.26,3.96 4.42,8.61 3.41,13.96l-32.25 149.47 118.15 -153.19c8.07,-10.93 19.07,-16.43 33.18,-16.43l170.56 0c4.5,0 7.91,1.24 10.23,3.72 2.25,2.48 3.41,5.74 3.41,9.61 0,3.57 -1.55,7.36 -4.65,11.47l-195.37 243.44 99.55 234.75c1.01,2.94 1.55,5.19 1.55,6.82 0,4.96 -2.33,9.23 -6.82,12.71 -4.57,3.57 -9.31,5.27 -14.26,5.27l-160.64 0c-14.11,0 -23.42,-5.73 -27.91,-17.36l-64.2 -164.36 -34.42 161.26c-1.09,5.59 -4.03,10.47 -9,14.58 -4.8,3.96 -9.85,5.89 -15.2,5.89l-144.2 0zm0 0z"/>
     </g>
    </g>
   </g>
   <g>
    <g id="_1782324431568">
     <g>
      <path class="fil2" d="M619.47 2656.77l-164.51 0c-22.64,0 -41.09,18.53 -41.09,41.17l0 41.09c0,22.64 18.45,41.17 41.09,41.17l123.42 0 0 41.09 -164.51 0 0 41.17 164.51 0c22.64,0 41.09,-18.53 41.09,-41.17l0 -41.09c0,-22.64 -18.45,-41.17 -41.09,-41.17l-123.42 0 0 -41.09 164.51 0 0 -41.17zm0 0z"/>
     </g>
    </g>
   </g>
   <g>
    <g id="_1782324432176">
     <g>
      <path class="fil2" d="M855.97 2862.45c22.88,0 41.09,-18.76 41.09,-41.17l0 -123.35c0,-22.64 -18.45,-41.17 -41.09,-41.17l-123.42 0c-22.64,0 -41.09,18.53 -41.09,41.17l0 123.35c0,22.64 18.45,41.17 41.09,41.17l123.42 0zm-123.42 -164.51l123.42 0 0 123.35 -123.42 0 0 -123.35zm0 0z"/>
     </g>
    </g>
   </g>
   <g>
    <g id="_1782324429200">
     <g>
      <path class="fil2" d="M1174.65 2656.77l-164.51 0c-22.64,0 -41.09,18.53 -41.09,41.17l0 164.51 41.09 0 0 -82.26 164.51 0 0 -41.17 -164.51 0 0 -41.09 164.51 0 0 -41.17zm0 0z"/>
     </g>
    </g>
   </g>
   <g>
    <g id="_1782324429488">
     <g>
      <path class="fil2" d="M1452.25 2656.77l-205.61 0 0 41.17 82.26 0 0 164.51 41.09 0 0 -164.51 82.26 0 0 -41.17zm0 0z"/>
     </g>
    </g>
   </g>
   <g>
    <g id="_1782324457584">
     <g>
      <path class="fil2" d="M1688.75 2821.28l-41.17 0 0 -164.51 -41.09 0 0 164.51 -41.17 0 0 -164.51 -41.09 0 0 164.51c0,22.64 18.45,41.17 41.09,41.17l123.42 0c22.64,0 41.09,-18.53 41.09,-41.17l0 -164.51 -41.09 0 0 164.51zm0 0z"/>
     </g>
    </g>
   </g>
   <g>
    <g id="_1747859412720">
     <g>
      <path class="fil2" d="M1842.92 2656.77c-22.64,0 -41.09,18.53 -41.09,41.17l0 164.51 41.09 0 0 -82.26 123.43 0 0 82.26 41.09 0 0 -164.51c0,-22.64 -18.45,-41.17 -41.09,-41.17l-123.43 0zm0 41.17l123.43 0 0 41.09 -123.43 0 0 -41.09zm0 0z"/>
     </g>
    </g>
   </g>
   <g>
    <g id="_1747859412016">
     <g>
      <path class="fil2" d="M2285.03 2697.93c0,-22.64 -18.45,-41.17 -41.09,-41.17l-164.51 0 0 205.68 41.09 0 0 -82.26 24.19 0 76.06 76.06c4.11,4.11 9.3,6.2 14.96,6.2l49.31 0 0 -41.17 -41.09 0 -41.17 -41.09 41.17 0c22.64,0 41.09,-18.53 41.09,-41.17l0 -41.09zm-41.09 0l0 41.09 -123.42 0 0 -41.09 123.42 0zm0 0z"/>
     </g>
    </g>
   </g>
   <g>
    <g id="_1747859408912">
     <g>
      <path class="fil2" d="M2562.62 2656.77l-164.51 0c-22.64,0 -41.09,18.53 -41.09,41.17l0 123.35c0,22.64 18.45,41.17 41.09,41.17l164.51 0 0 -41.17 -164.51 0 0 -41.09 164.51 0 0 -41.17 -164.51 0 0 -41.09 164.51 0 0 -41.17zm0 0z"/>
     </g>
    </g>
   </g>
  </g>
 </g>
</svg>
